<?xml version="1.0" encoding="UTF-8"?>
<svg xmlns="http://www.w3.org/2000/svg" xmlns:xlink="http://www.w3.org/1999/xlink" width="600px" height="600px" viewBox="0 0 600 600" version="1.1">
<g id="surface1">
<path style="fill-rule:evenodd;fill:rgb(0%,0%,0%);fill-opacity:1;stroke-width:1.5;stroke-linecap:round;stroke-linejoin:round;stroke:rgb(0%,0%,0%);stroke-opacity:1;stroke-miterlimit:4;" d="M 21.999902 9.999902 C 32.499902 11.000098 38.499902 18 38.000098 39 L 15 39 C 15 30 24.999902 32.499902 23.000098 18 " transform="matrix(13.333333,0,0,13.333333,0,0)"/>
<path style="fill-rule:evenodd;fill:rgb(0%,0%,0%);fill-opacity:1;stroke-width:1.5;stroke-linecap:round;stroke-linejoin:round;stroke:rgb(0%,0%,0%);stroke-opacity:1;stroke-miterlimit:4;" d="M 24 18 C 24.37998 20.910059 18.45 25.369922 15.999902 27 C 12.999902 29.000098 13.180078 31.340039 11.000098 30.999902 C 9.958008 30.060059 12.409863 27.960059 11.000098 27.999902 C 9.999902 27.999902 11.189941 29.230078 9.999902 30 C 9 30 5.99707 30.999902 6 26.000098 C 6 24 12 14.000098 12 14.000098 C 12 14.000098 13.889941 12.099902 14.000098 10.5 C 13.27002 9.505957 13.5 8.499902 13.5 7.5 C 14.499902 6.500098 16.5 9.999902 16.5 9.999902 L 18.500098 9.999902 C 18.500098 9.999902 19.27998 8.008008 21 6.999902 C 21.999902 6.999902 21.999902 9.999902 21.999902 9.999902 " transform="matrix(13.333333,0,0,13.333333,0,0)"/>
<path style="fill-rule:evenodd;fill:rgb(92.54902%,92.54902%,92.54902%);fill-opacity:1;stroke-width:1.5;stroke-linecap:round;stroke-linejoin:round;stroke:rgb(92.54902%,92.54902%,92.54902%);stroke-opacity:1;stroke-miterlimit:4;" d="M 9.500098 25.5 C 9.500098 25.77627 9.27627 26.000098 9 26.000098 C 8.72373 26.000098 8.499902 25.77627 8.499902 25.5 C 8.499902 25.22373 8.72373 24.999902 9 24.999902 C 9.27627 24.999902 9.500098 25.22373 9.500098 25.5 Z M 14.93291 15.75 C 14.664844 16.216699 14.333203 16.601367 14.063672 16.75752 C 13.794141 16.913965 13.62832 16.818164 13.628906 16.506738 C 13.629785 16.19502 13.796777 15.71543 14.066895 15.249902 C 14.334961 14.783203 14.666895 14.398828 14.936426 14.242383 C 15.205664 14.085938 15.371777 14.181738 15.370898 14.493164 C 15.370312 14.804883 15.203027 15.284473 14.93291 15.75 Z M 14.93291 15.75 " transform="matrix(13.333333,0,0,13.333333,0,0)"/>
<path style=" stroke:none;fill-rule:evenodd;fill:rgb(92.54902%,92.54902%,92.54902%);fill-opacity:1;" d="M 327.332031 138.667969 L 321.332031 158 L 328 160 C 370 173.332031 403.332031 193.199219 433.332031 250 C 463.332031 306.800781 476.667969 387.464844 470 520 L 469.332031 526.667969 L 499.332031 526.667969 L 500 520 C 506.667969 385.867188 488.265625 295.332031 456.667969 235.464844 C 425.066406 175.601562 379.464844 146.933594 334.132812 140 Z M 327.332031 138.667969 "/>
</g>
</svg>
