<?xml version="1.0" encoding="UTF-8"?>
<svg xmlns="http://www.w3.org/2000/svg" xmlns:xlink="http://www.w3.org/1999/xlink" width="600px" height="600px" viewBox="0 0 600 600" version="1.1">
<g id="surface1">
<path style=" stroke:none;fill-rule:evenodd;fill:rgb(0%,0%,0%);fill-opacity:1;" d="M 116.667969 160 C 116.667969 180.25 100.25 196.667969 80 196.667969 C 59.75 196.667969 43.332031 180.25 43.332031 160 C 43.332031 139.75 59.75 123.332031 80 123.332031 C 100.25 123.332031 116.667969 139.75 116.667969 160 Z M 116.667969 160 "/>
<path style=" stroke:none;fill-rule:evenodd;fill:rgb(0%,0%,0%);fill-opacity:1;" d="M 223.332031 120 C 223.332031 140.25 206.917969 156.667969 186.667969 156.667969 C 166.417969 156.667969 150 140.25 150 120 C 150 99.75 166.417969 83.332031 186.667969 83.332031 C 206.917969 83.332031 223.332031 99.75 223.332031 120 Z M 223.332031 120 "/>
<path style=" stroke:none;fill-rule:evenodd;fill:rgb(0%,0%,0%);fill-opacity:1;" d="M 336.667969 106.667969 C 336.667969 126.917969 320.25 143.332031 300 143.332031 C 279.75 143.332031 263.332031 126.917969 263.332031 106.667969 C 263.332031 86.417969 279.75 70 300 70 C 320.25 70 336.667969 86.417969 336.667969 106.667969 Z M 336.667969 106.667969 "/>
<path style=" stroke:none;fill-rule:evenodd;fill:rgb(0%,0%,0%);fill-opacity:1;" d="M 450 120 C 450 140.25 433.582031 156.667969 413.332031 156.667969 C 393.082031 156.667969 376.667969 140.25 376.667969 120 C 376.667969 99.75 393.082031 83.332031 413.332031 83.332031 C 433.582031 83.332031 450 99.75 450 120 Z M 450 120 "/>
<path style=" stroke:none;fill-rule:evenodd;fill:rgb(0%,0%,0%);fill-opacity:1;" d="M 556.667969 160 C 556.667969 180.25 540.25 196.667969 520 196.667969 C 499.75 196.667969 483.332031 180.25 483.332031 160 C 483.332031 139.75 499.75 123.332031 520 123.332031 C 540.25 123.332031 556.667969 139.75 556.667969 160 Z M 556.667969 160 "/>
<path style="fill-rule:evenodd;fill:rgb(0%,0%,0%);fill-opacity:1;stroke-width:1.5;stroke-linecap:butt;stroke-linejoin:round;stroke:rgb(0%,0%,0%);stroke-opacity:1;stroke-miterlimit:4;" d="M 9 26.000098 C 17.499902 24.500098 30 24.500098 36 26.000098 L 38.499902 13.5 L 30.999902 24.999902 L 30.699902 10.899902 L 25.5 24.500098 L 22.5 9.999902 L 19.5 24.500098 L 14.300098 10.899902 L 14.000098 24.999902 L 6.500098 13.5 Z M 9 26.000098 " transform="matrix(13.333333,0,0,13.333333,0,0)"/>
<path style="fill-rule:evenodd;fill:rgb(0%,0%,0%);fill-opacity:1;stroke-width:1.5;stroke-linecap:butt;stroke-linejoin:round;stroke:rgb(0%,0%,0%);stroke-opacity:1;stroke-miterlimit:4;" d="M 9 26.000098 C 9 27.999902 10.5 27.999902 11.499902 30 C 12.500098 31.5 12.500098 30.999902 12 33.500098 C 10.5 34.5 10.5 36 10.5 36 C 9 37.5 11.000098 38.499902 11.000098 38.499902 C 17.499902 39.500098 27.500098 39.500098 33.999902 38.499902 C 33.999902 38.499902 35.499902 37.5 33.999902 36 C 33.999902 36 34.5 34.5 33 33.500098 C 32.499902 30.999902 32.499902 31.5 33.500098 30 C 34.5 27.999902 36 27.999902 36 26.000098 C 27.500098 24.500098 17.499902 24.500098 9 26.000098 Z M 9 26.000098 " transform="matrix(13.333333,0,0,13.333333,0,0)"/>
<path style="fill:none;stroke-width:1.5;stroke-linecap:butt;stroke-linejoin:round;stroke:rgb(0%,0%,0%);stroke-opacity:1;stroke-miterlimit:4;" d="M 11.000098 38.499902 C 18.447656 41.090918 26.552344 41.090918 33.999902 38.499902 " transform="matrix(13.333333,0,0,13.333333,0,0)"/>
<path style="fill:none;stroke-width:1.5;stroke-linecap:round;stroke-linejoin:round;stroke:rgb(92.54902%,92.54902%,92.54902%);stroke-opacity:1;stroke-miterlimit:4;" d="M 11.000098 29.000098 C 18.447656 26.409082 26.552344 26.409082 33.999902 29.000098 M 12.500098 31.5 L 32.499902 31.5 M 11.499902 34.5 C 18.642773 36.864551 26.357227 36.864551 33.500098 34.5 M 10.5 37.5 C 18.249902 40.328613 26.750098 40.328613 34.5 37.5 " transform="matrix(13.333333,0,0,13.333333,0,0)"/>
</g>
</svg>
