<?xml version="1.0" encoding="UTF-8"?>
<svg xmlns="http://www.w3.org/2000/svg" xmlns:xlink="http://www.w3.org/1999/xlink" width="600px" height="600px" viewBox="0 0 600 600" version="1.1">
<g id="surface1">
<path style="fill-rule:evenodd;fill:rgb(0%,0%,0%);fill-opacity:1;stroke-width:1.5;stroke-linecap:butt;stroke-linejoin:round;stroke:rgb(0%,0%,0%);stroke-opacity:1;stroke-miterlimit:4;" d="M 9 39 L 36 39 L 36 36 L 9 36 Z M 12.500098 32.000098 L 14.000098 29.499902 L 30.999902 29.499902 L 32.499902 32.000098 Z M 12 36 L 12 32.000098 L 33 32.000098 L 33 36 Z M 12 36 " transform="matrix(13.333333,0,0,13.333333,0,0)"/>
<path style="fill-rule:evenodd;fill:rgb(0%,0%,0%);fill-opacity:1;stroke-width:1.5;stroke-linecap:butt;stroke-linejoin:miter;stroke:rgb(0%,0%,0%);stroke-opacity:1;stroke-miterlimit:4;" d="M 14.000098 29.499902 L 14.000098 16.5 L 30.999902 16.5 L 30.999902 29.499902 Z M 14.000098 29.499902 " transform="matrix(13.333333,0,0,13.333333,0,0)"/>
<path style="fill-rule:evenodd;fill:rgb(0%,0%,0%);fill-opacity:1;stroke-width:1.5;stroke-linecap:butt;stroke-linejoin:round;stroke:rgb(0%,0%,0%);stroke-opacity:1;stroke-miterlimit:4;" d="M 14.000098 16.5 L 11.000098 14.000098 L 33.999902 14.000098 L 30.999902 16.5 Z M 11.000098 14.000098 L 11.000098 9 L 15 9 L 15 11.000098 L 20.000098 11.000098 L 20.000098 9 L 24.999902 9 L 24.999902 11.000098 L 30 11.000098 L 30 9 L 33.999902 9 L 33.999902 14.000098 Z M 11.000098 14.000098 " transform="matrix(13.333333,0,0,13.333333,0,0)"/>
<path style="fill:none;stroke-width:1;stroke-linecap:round;stroke-linejoin:miter;stroke:rgb(92.54902%,92.54902%,92.54902%);stroke-opacity:1;stroke-miterlimit:4;" d="M 12 35.499902 L 33 35.499902 M 12.999902 31.5 L 32.000098 31.5 M 14.000098 29.499902 L 30.999902 29.499902 M 14.000098 16.5 L 30.999902 16.5 M 11.000098 14.000098 L 33.999902 14.000098 " transform="matrix(13.333333,0,0,13.333333,0,0)"/>
</g>
</svg>
