<?xml version="1.0" encoding="UTF-8"?>
<svg xmlns="http://www.w3.org/2000/svg" xmlns:xlink="http://www.w3.org/1999/xlink" width="600px" height="600px" viewBox="0 0 600 600" version="1.1">
<g id="surface1">
<path style="fill-rule:evenodd;fill:rgb(100%,100%,100%);fill-opacity:1;stroke-width:1.5;stroke-linecap:butt;stroke-linejoin:round;stroke:rgb(0%,0%,0%);stroke-opacity:1;stroke-miterlimit:4;" d="M 9 36 C 12.389941 35.02998 19.110059 36.430078 22.5 33.999902 C 25.889941 36.430078 32.610059 35.02998 36 36 C 36 36 37.65 36.539941 39 38.000098 C 38.32002 38.970117 37.35 38.990039 36 38.499902 C 32.610059 37.529883 25.889941 38.959863 22.5 37.5 C 19.110059 38.959863 12.389941 37.529883 9 38.499902 C 7.645898 38.990039 6.677051 38.970117 6 38.000098 C 7.354102 36.060059 9 36 9 36 Z M 9 36 " transform="matrix(13.333333,0,0,13.333333,0,0)"/>
<path style="fill-rule:evenodd;fill:rgb(100%,100%,100%);fill-opacity:1;stroke-width:1.5;stroke-linecap:butt;stroke-linejoin:round;stroke:rgb(0%,0%,0%);stroke-opacity:1;stroke-miterlimit:4;" d="M 15 32.000098 C 17.499902 34.5 27.500098 34.5 30 32.000098 C 30.500098 30.500098 30 30 30 30 C 30 27.500098 27.500098 26.000098 27.500098 26.000098 C 33 24.500098 33.500098 14.499902 22.5 10.5 C 11.499902 14.499902 12 24.500098 17.499902 26.000098 C 17.499902 26.000098 15 27.500098 15 30 C 15 30 14.499902 30.500098 15 32.000098 Z M 15 32.000098 " transform="matrix(13.333333,0,0,13.333333,0,0)"/>
<path style="fill-rule:evenodd;fill:rgb(100%,100%,100%);fill-opacity:1;stroke-width:1.5;stroke-linecap:butt;stroke-linejoin:round;stroke:rgb(0%,0%,0%);stroke-opacity:1;stroke-miterlimit:4;" d="M 24.999902 8.000098 C 24.999902 9.380566 23.880762 10.5 22.5 10.5 C 21.119238 10.5 20.000098 9.380566 20.000098 8.000098 C 20.000098 6.619336 21.119238 5.499902 22.5 5.499902 C 23.880762 5.499902 24.999902 6.619336 24.999902 8.000098 Z M 24.999902 8.000098 " transform="matrix(13.333333,0,0,13.333333,0,0)"/>
<path style="fill:none;stroke-width:1.5;stroke-linecap:round;stroke-linejoin:miter;stroke:rgb(0%,0%,0%);stroke-opacity:1;stroke-miterlimit:4;" d="M 17.499902 26.000098 L 27.500098 26.000098 M 15 30 L 30 30 M 22.5 15.500098 L 22.5 20.499902 M 20.000098 18 L 24.999902 18 " transform="matrix(13.333333,0,0,13.333333,0,0)"/>
</g>
</svg>
