<?xml version="1.0" encoding="UTF-8"?>
<svg xmlns="http://www.w3.org/2000/svg" xmlns:xlink="http://www.w3.org/1999/xlink" width="600px" height="600px" viewBox="0 0 600 600" version="1.1">
<g id="surface1">
<path style="fill-rule:nonzero;fill:rgb(100%,100%,100%);fill-opacity:1;stroke-width:1.5;stroke-linecap:round;stroke-linejoin:miter;stroke:rgb(0%,0%,0%);stroke-opacity:1;stroke-miterlimit:4;" d="M 22.5 9 C 20.290137 9 18.500098 10.790039 18.500098 12.999902 C 18.500098 13.889941 18.790137 14.709961 19.27998 15.37998 C 17.32998 16.5 15.999902 18.590039 15.999902 21 C 15.999902 23.02998 16.940039 24.839941 18.409863 26.02998 C 15.409863 27.089941 11.000098 31.57998 11.000098 39.500098 L 33.999902 39.500098 C 33.999902 31.57998 29.590137 27.089941 26.590137 26.02998 C 28.059961 24.839941 29.000098 23.02998 29.000098 21 C 29.000098 18.590039 27.67002 16.5 25.72002 15.37998 C 26.209863 14.709961 26.499902 13.889941 26.499902 12.999902 C 26.499902 10.790039 24.709863 9 22.5 9 Z M 22.5 9 " transform="matrix(13.333333,0,0,13.333333,0,0)"/>
</g>
</svg>
