<?xml version="1.0" encoding="UTF-8"?>
<svg xmlns="http://www.w3.org/2000/svg" xmlns:xlink="http://www.w3.org/1999/xlink" width="600px" height="600px" viewBox="0 0 600 600" version="1.1">
<g id="surface1">
<path style="fill-rule:evenodd;fill:rgb(100%,100%,100%);fill-opacity:1;stroke-width:1.5;stroke-linecap:round;stroke-linejoin:round;stroke:rgb(0%,0%,0%);stroke-opacity:1;stroke-miterlimit:4;" d="M 8.000098 12 C 8.000098 13.104492 7.104492 14.000098 6 14.000098 C 4.895508 14.000098 3.999902 13.104492 3.999902 12 C 3.999902 10.895508 4.895508 9.999902 6 9.999902 C 7.104492 9.999902 8.000098 10.895508 8.000098 12 Z M 24.500098 7.5 C 24.500098 8.604492 23.604492 9.500098 22.5 9.500098 C 21.395508 9.500098 20.499902 8.604492 20.499902 7.5 C 20.499902 6.395508 21.395508 5.499902 22.5 5.499902 C 23.604492 5.499902 24.500098 6.395508 24.500098 7.5 Z M 41.000098 12 C 41.000098 13.104492 40.104492 14.000098 39 14.000098 C 37.895508 14.000098 36.999902 13.104492 36.999902 12 C 36.999902 10.895508 37.895508 9.999902 39 9.999902 C 40.104492 9.999902 41.000098 10.895508 41.000098 12 Z M 15.999902 8.499902 C 15.999902 9.604687 15.10459 10.5 14.000098 10.5 C 12.895312 10.5 12 9.604687 12 8.499902 C 12 7.39541 12.895312 6.500098 14.000098 6.500098 C 15.10459 6.500098 15.999902 7.39541 15.999902 8.499902 Z M 33 9 C 33 10.104492 32.104687 11.000098 30.999902 11.000098 C 29.89541 11.000098 29.000098 10.104492 29.000098 9 C 29.000098 7.895508 29.89541 6.999902 30.999902 6.999902 C 32.104687 6.999902 33 7.895508 33 9 Z M 33 9 " transform="matrix(13.333333,0,0,13.333333,0,0)"/>
<path style="fill-rule:evenodd;fill:rgb(100%,100%,100%);fill-opacity:1;stroke-width:1.5;stroke-linecap:butt;stroke-linejoin:round;stroke:rgb(0%,0%,0%);stroke-opacity:1;stroke-miterlimit:4;" d="M 9 26.000098 C 17.499902 24.500098 30 24.500098 36 26.000098 L 38.000098 14.000098 L 30.999902 24.999902 L 30.999902 11.000098 L 25.5 24.500098 L 22.5 9.500098 L 19.5 24.500098 L 14.000098 10.5 L 14.000098 24.999902 L 6.999902 14.000098 Z M 9 26.000098 " transform="matrix(13.333333,0,0,13.333333,0,0)"/>
<path style="fill-rule:evenodd;fill:rgb(100%,100%,100%);fill-opacity:1;stroke-width:1.5;stroke-linecap:butt;stroke-linejoin:round;stroke:rgb(0%,0%,0%);stroke-opacity:1;stroke-miterlimit:4;" d="M 9 26.000098 C 9 27.999902 10.5 27.999902 11.499902 30 C 12.500098 31.5 12.500098 30.999902 12 33.500098 C 10.5 34.5 10.5 36 10.5 36 C 9 37.5 11.000098 38.499902 11.000098 38.499902 C 17.499902 39.500098 27.500098 39.500098 33.999902 38.499902 C 33.999902 38.499902 35.499902 37.5 33.999902 36 C 33.999902 36 34.5 34.5 33 33.500098 C 32.499902 30.999902 32.499902 31.5 33.500098 30 C 34.5 27.999902 36 27.999902 36 26.000098 C 27.500098 24.500098 17.499902 24.500098 9 26.000098 Z M 9 26.000098 " transform="matrix(13.333333,0,0,13.333333,0,0)"/>
<path style="fill:none;stroke-width:1.5;stroke-linecap:round;stroke-linejoin:round;stroke:rgb(0%,0%,0%);stroke-opacity:1;stroke-miterlimit:4;" d="M 11.499902 30 C 15 29.000098 30 29.000098 33.500098 30 M 12 33.500098 C 18 32.499902 27 32.499902 33 33.500098 " transform="matrix(13.333333,0,0,13.333333,0,0)"/>
</g>
</svg>
